<svg width="263" height="250" viewBox="0 0 263 201" fill="none" xmlns="http://www.w3.org/2000/svg">
<g opacity="0.2">
<path d="M259.428 111.109L237.498 125.049C235.907 126.013 234.027 126.371 232.197 126.059C230.367 125.748 228.708 124.786 227.519 123.348L216.626 109.553V193.5C216.622 195.315 215.905 197.054 214.632 198.338C213.36 199.621 211.635 200.344 209.835 200.347H98.4689C96.6691 200.344 94.9441 199.621 93.6714 198.338C92.3987 197.054 91.6821 195.315 91.6783 193.5V109.437L80.6847 123.348C79.497 124.782 77.8406 125.742 76.0139 126.053C74.1871 126.365 72.3099 126.009 70.7203 125.049L48.7759 111.109C48.0426 110.685 47.4156 110.096 46.9432 109.388C46.4708 108.681 46.1656 107.873 46.051 107.028C45.9364 106.183 46.0155 105.323 46.2822 104.513C46.5489 103.704 46.9961 102.967 47.5894 102.359L79.6839 66.4354C83.4563 62.2069 88.0684 58.8255 93.2208 56.5109C98.3732 54.1963 103.951 53.0001 109.591 53H122.958C125.575 59.1556 129.925 64.4017 135.47 68.0884C141.015 71.775 147.51 73.7401 154.152 73.7401C160.794 73.7401 167.289 71.775 172.834 68.0884C178.379 64.4017 182.729 59.1556 185.346 53H198.698C204.342 53.0017 209.922 54.2 215.077 56.5171C220.232 58.8341 224.846 62.2183 228.62 66.4498L260.643 102.345C261.235 102.956 261.681 103.696 261.945 104.508C262.21 105.319 262.286 106.182 262.169 107.028C262.051 107.874 261.743 108.682 261.268 109.39C260.793 110.097 260.164 110.685 259.428 111.109Z" fill="#303030"/>
</g>
<path d="M137.204 37.3561L123.106 46.3175C122.083 46.937 120.874 47.1673 119.698 46.9668C118.521 46.7663 117.455 46.1481 116.691 45.224L109.688 36.3552V103.598C109.685 104.765 109.225 105.883 108.407 106.708C107.588 107.533 106.479 107.998 105.322 108H33.73C32.573 107.998 31.464 107.533 30.6459 106.708C29.8278 105.883 29.3671 104.765 29.3646 103.598V36.2811L22.2973 45.224C21.5338 46.1458 20.469 46.7624 19.2946 46.9629C18.1203 47.1634 16.9135 46.9345 15.8916 46.3175L1.78453 37.3561C1.31308 37.0829 0.910026 36.7043 0.606348 36.2495C0.302671 35.7947 0.106458 35.2757 0.0327911 34.7325C-0.0408754 34.1892 0.00996605 33.6362 0.181407 33.1158C0.352849 32.5955 0.640325 32.1217 1.02174 31.7309L21.654 8.63703C24.0791 5.9187 27.044 3.74499 30.3562 2.25702C33.6685 0.769042 37.254 6.45954e-05 40.8801 0H49.473C51.1551 3.95717 53.9517 7.32969 57.5162 9.69967C61.0808 12.0696 65.2566 13.3329 69.5262 13.3329C73.7959 13.3329 77.9717 12.0696 81.5362 9.69967C85.1008 7.32969 87.8974 3.95717 89.5795 0H98.1632C101.791 0.00109178 105.379 0.77141 108.693 2.26097C112.006 3.75052 114.972 5.92603 117.399 8.6463L137.985 31.7216C138.365 32.1146 138.652 32.5902 138.822 33.1121C138.992 33.634 139.041 34.1882 138.966 34.7322C138.89 35.2762 138.692 35.7956 138.387 36.2504C138.081 36.7053 137.677 37.0835 137.204 37.3561Z" fill="#303030"/>
<g opacity="0.4" filter="url(#filter0_f_0_1)">
<path d="M33 76.5V102.5C33 103.605 33.8954 104.5 35 104.5H59.5" stroke="url(#paint0_linear_0_1)" stroke-linecap="round"/>
</g>
<defs>
<filter id="filter0_f_0_1" x="30.5" y="74" width="31.5" height="33" filterUnits="userSpaceOnUse" color-interpolation-filters="sRGB">
<feFlood flood-opacity="0" result="BackgroundImageFix"/>
<feBlend mode="normal" in="SourceGraphic" in2="BackgroundImageFix" result="shape"/>
<feGaussianBlur stdDeviation="1" result="effect1_foregroundBlur_0_1"/>
</filter>
<linearGradient id="paint0_linear_0_1" x1="34" y1="104.5" x2="40" y2="98.5" gradientUnits="userSpaceOnUse">
<stop stop-color="#FF6C02"/>
<stop offset="1" stop-color="#994101" stop-opacity="0"/>
</linearGradient>
</defs>
</svg>
