<svg width="494" height="150" viewBox="0 0 494 150" fill="none" xmlns="http://www.w3.org/2000/svg">
    <path fill-rule="evenodd" clip-rule="evenodd" d="M141.544 73.9544C142.146 71.2661 144.256 68.9747 147.398 66.5823L135.016 54.2913C134.196 53.6966 134.338 53.147 135.01 52.6096L138.637 50.6818C139.266 50.4641 139.886 50.4472 140.482 50.7611L157.584 57.6978L175.937 44.9428L146.553 13.9114C145.792 13.204 145.847 12.607 146.897 12.1324L152.764 9.25806L195.014 31.8928L211.472 20.6089C216.793 17.7329 221.514 16.9645 224.663 18.5228C226.398 19.383 226.924 20.0736 227.11 21.9212C227.464 25.5423 224.751 29.7027 219.678 33.481L202.502 43.6399L205.19 91.4956L200.109 95.6008C199.237 96.346 198.672 96.144 198.35 95.1626L182.612 55.4315L163.305 66.6798L162.375 85.1122C162.409 85.7781 162.139 86.3344 161.668 86.8182L158.39 89.2922C157.626 89.6762 157.061 89.5721 156.868 88.5772L150.951 72.165C147.441 74.0067 144.473 74.953 141.77 74.3546C141.525 74.2933 141.491 74.1947 141.544 73.9544Z" fill="#4A4A4A"/>
    <path d="M3.19629 150C3.19629 90.5 76.9999 80.5 167 58.5" stroke="url(#paint0_linear)" stroke-width="4"/>
    <path d="M213.5 28C240.833 10 308 -15.2 358 28C408 71.2 468.833 28.667 493 2" stroke="url(#paint1_linear)" stroke-width="4"/>
    <defs>
        <linearGradient id="paint0_linear" x1="30.5" y1="120.5" x2="165.072" y2="46.125" gradientUnits="userSpaceOnUse">
            <stop stop-color="#4A4A4A" stop-opacity="0"/>
            <stop offset="1" stop-color="#4A4A4A"/>
        </linearGradient>
        <linearGradient id="paint1_linear" x1="222.5" y1="24" x2="283.53" y2="-41.84" gradientUnits="userSpaceOnUse">
            <stop stop-color="#4A4A4A"/>
            <stop offset="1" stop-color="#4A4A4A" stop-opacity="0"/>
        </linearGradient>
    </defs>
</svg>
