<svg width="318" height="168" viewBox="0 0 318 168" fill="none" xmlns="http://www.w3.org/2000/svg">
<rect y="-34" width="318" height="202" fill="#1C1C1C"/>
<rect x="15" y="-19" width="204" height="172" fill="#141414"/>
<rect opacity="0.2" x="229" y="-4" width="74" height="10" fill="#2D2D2D"/>
<rect opacity="0.2" x="229" y="12" width="37" height="10" fill="#2D2D2D"/>
<rect opacity="0.2" x="229" y="28" width="57" height="10" fill="#2D2D2D"/>
<rect opacity="0.2" x="229" y="44" width="66" height="10" fill="#2D2D2D"/>
<rect opacity="0.2" x="229" y="143" width="57" height="10" fill="#2D2D2D"/>
<circle cx="117" cy="67" r="27" fill="#2D2D2D"/>
<path d="M122.658 64.2864C124.098 65.1862 124.818 65.6361 125.065 66.2122C125.28 66.7152 125.28 67.2847 125.065 67.7878C124.818 68.3638 124.098 68.8137 122.658 69.7136L115.896 73.94C114.298 74.9387 113.499 75.4381 112.84 75.385C112.265 75.3388 111.738 75.0469 111.394 74.584C111 74.053 111 73.1108 111 71.2264V62.7736C111 60.8892 111 59.947 111.394 59.416C111.738 58.9531 112.265 58.6611 112.84 58.6149C113.499 58.5619 114.298 59.0613 115.896 60.06L122.658 64.2864Z" stroke="#525252" stroke-width="5" stroke-linejoin="round"/>
<path d="M112 74.7647V59.5883L123.294 64.5294L125.412 67.353L114.118 74.7647H112Z" fill="#525252"/>
</svg>
