<svg width="326" height="104" viewBox="0 0 326 104" fill="none" xmlns="http://www.w3.org/2000/svg">
<path d="M104.789 41.6055H108.676C110.082 41.6055 111.07 41.3207 111.641 40.7511C112.212 40.1376 112.498 39.1298 112.498 37.7276V17.6807C112.498 16.2786 112.212 15.2926 111.641 14.723C111.07 14.1095 110.082 13.8028 108.676 13.8028H104.789C103.384 13.8028 102.395 14.1095 101.824 14.723C101.253 15.2926 100.968 16.2786 100.968 17.6807V37.7276C100.968 39.1298 101.253 40.1376 101.824 40.7511C102.395 41.3207 103.384 41.6055 104.789 41.6055ZM109.994 48.8356H103.406C99.9355 48.8356 97.2562 47.9154 95.3674 46.075C93.4787 44.2346 92.5343 41.5836 92.5343 38.122V17.2864C92.5343 13.8247 93.4787 11.1737 95.3674 9.33335C97.2562 7.49298 99.9355 6.5728 103.406 6.5728H109.994C113.42 6.5728 116.078 7.51489 117.966 9.39908C119.855 11.2394 120.799 13.8685 120.799 17.2864V38.122C120.799 41.5398 119.855 44.1908 117.966 46.075C116.078 47.9154 113.42 48.8356 109.994 48.8356Z" fill="url(#paint0_linear_97_235)"/>
<path d="M69.4655 41.6055H73.3527C74.7583 41.6055 75.7466 41.3207 76.3176 40.7511C76.8886 40.1376 77.1741 39.1298 77.1741 37.7276V17.6807C77.1741 16.2786 76.8886 15.2926 76.3176 14.723C75.7466 14.1095 74.7583 13.8028 73.3527 13.8028H69.4655C68.0599 13.8028 67.0716 14.1095 66.5006 14.723C65.9296 15.2926 65.6441 16.2786 65.6441 17.6807V37.7276C65.6441 39.1298 65.9296 40.1376 66.5006 40.7511C67.0716 41.3207 68.0599 41.6055 69.4655 41.6055ZM74.6705 48.8356H68.0818C64.6119 48.8356 61.9325 47.9154 60.0437 46.075C58.155 44.2346 57.2107 41.5836 57.2107 38.122V17.2864C57.2107 13.8247 58.155 11.1737 60.0437 9.33335C61.9325 7.49298 64.6119 6.5728 68.0818 6.5728H74.6705C78.0965 6.5728 80.754 7.51489 82.6427 9.39908C84.5314 11.2394 85.4758 13.8685 85.4758 17.2864V38.122C85.4758 41.5398 84.5314 44.1908 82.6427 46.075C80.754 47.9154 78.0965 48.8356 74.6705 48.8356Z" fill="url(#paint1_linear_97_235)"/>
<path d="M33.2292 18.338V12.9484C33.2292 12.2035 33.5587 11.6338 34.2175 11.2394L40.2132 7.49298C41.2234 6.87953 42.0799 6.5728 42.7827 6.5728H48.0536C48.976 6.5728 49.4372 7.03289 49.4372 7.95307V47.4553C49.4372 47.9811 49.3274 48.3536 49.1078 48.5727C48.9321 48.7479 48.6026 48.8356 48.1195 48.8356H42.4533C41.5309 48.8356 41.0697 48.3755 41.0697 47.4553V15.446L34.6128 19.1267C33.6904 19.5211 33.2292 19.2582 33.2292 18.338Z" fill="url(#paint2_linear_97_235)"/>
<path d="M16.4715 55.2768H12.5184C11.596 55.2768 11.1347 54.8167 11.1347 53.8965V48.8355H10.6735C7.33532 48.8355 4.72184 47.8934 2.8331 46.0092C0.988291 44.0812 0.065886 41.4302 0.065886 38.0562V36.8074C0.065886 35.8872 0.527089 35.4271 1.44949 35.4271H7.04981C7.97222 35.4271 8.43342 35.8872 8.43342 36.8074V37.2675C8.43342 38.9326 8.76285 40.0719 9.42171 40.6853C10.0806 41.2988 11.2885 41.6055 13.0454 41.6055H15.6809C17.3939 41.6055 18.5799 41.2769 19.2387 40.6196C19.9415 39.9623 20.2929 38.7354 20.2929 36.9388V35.9529C20.2929 34.8575 19.9635 34.003 19.3046 33.3896C18.6458 32.7761 17.8771 32.3598 16.9986 32.1407C16.208 31.9655 14.6487 31.7683 12.3207 31.5492C10.0366 31.3301 8.32361 31.0672 7.18158 30.7605C6.03956 30.4099 4.87557 29.8403 3.68962 29.0515C1.22987 27.4741 0 24.3849 0 19.784V17.3521C0 13.8904 0.922405 11.2394 2.76722 9.39903C4.65595 7.51484 7.29139 6.57275 10.6735 6.57275H11.1347V1.38027C11.1347 0.460092 11.596 0 12.5184 0H16.4715C17.3939 0 17.8551 0.460092 17.8551 1.38027V6.57275H17.9869C21.1055 6.57275 23.5653 7.53675 25.3661 9.46476C27.167 11.3928 28.0675 14.0219 28.0675 17.3521V18.6009C28.0675 19.5211 27.6063 19.9812 26.6839 19.9812H21.0835C20.1611 19.9812 19.6999 19.5211 19.6999 18.6009V18.1408C19.6999 16.4757 19.3705 15.3364 18.7116 14.723C18.0967 14.1095 16.8888 13.8028 15.0879 13.8028H12.9796C11.1787 13.8028 9.9488 14.1533 9.28994 14.8544C8.675 15.5117 8.36753 16.8262 8.36753 18.7981V20.1126C8.36753 21.0766 8.69696 21.8434 9.35582 22.4131C10.0147 22.9389 10.7614 23.2894 11.596 23.4647C12.5623 23.64 14.1875 23.8372 16.4715 24.0563C18.7995 24.2315 20.5345 24.5163 21.6765 24.9107C22.8625 25.2613 24.0265 25.8309 25.1685 26.6196C27.4965 28.2847 28.6604 31.2644 28.6604 35.5586V38.0562C28.6604 41.474 27.6941 44.125 25.7615 46.0092C23.8727 47.8934 21.2812 48.8355 17.9869 48.8355H17.8551V53.8965C17.8551 54.8167 17.3939 55.2768 16.4715 55.2768Z" fill="url(#paint3_linear_97_235)"/>
<path d="M309.945 90.2915H313.843C315.253 90.2915 316.244 90.0059 316.816 89.4347C317.389 88.8195 317.675 87.809 317.675 86.403V66.3015C317.675 64.8955 317.389 63.9069 316.816 63.3357C316.244 62.7206 315.253 62.413 313.843 62.413H309.945C308.536 62.413 307.544 62.7206 306.972 63.3357C306.399 63.9069 306.113 64.8955 306.113 66.3015V86.403C306.113 87.809 306.399 88.8195 306.972 89.4347C307.544 90.0059 308.536 90.2915 309.945 90.2915ZM315.165 97.5412H308.558C305.078 97.5412 302.391 96.6185 300.497 94.7731C298.603 92.9277 297.656 90.2695 297.656 86.7984V65.9061C297.656 62.435 298.603 59.7768 300.497 57.9314C302.391 56.086 305.078 55.1633 308.558 55.1633H315.165C318.6 55.1633 321.265 56.108 323.159 57.9973C325.053 59.8427 326 62.4789 326 65.9061V86.7984C326 90.2255 325.053 92.8838 323.159 94.7731C321.265 96.6185 318.6 97.5412 315.165 97.5412Z" fill="url(#paint4_linear_97_235)"/>
<path d="M274.523 90.2915H278.421C279.83 90.2915 280.821 90.0059 281.394 89.4347C281.967 88.8195 282.253 87.809 282.253 86.403V66.3015C282.253 64.8955 281.967 63.9069 281.394 63.3357C280.821 62.7206 279.83 62.413 278.421 62.413H274.523C273.113 62.413 272.122 62.7206 271.55 63.3357C270.977 63.9069 270.691 64.8955 270.691 66.3015V86.403C270.691 87.809 270.977 88.8195 271.55 89.4347C272.122 90.0059 273.113 90.2915 274.523 90.2915ZM279.742 97.5412H273.135C269.656 97.5412 266.969 96.6185 265.075 94.7731C263.181 92.9277 262.234 90.2695 262.234 86.7984V65.9061C262.234 62.435 263.181 59.7768 265.075 57.9314C266.969 56.086 269.656 55.1633 273.135 55.1633H279.742C283.178 55.1633 285.843 56.108 287.737 57.9973C289.631 59.8427 290.578 62.4789 290.578 65.9061V86.7984C290.578 90.2255 289.631 92.8838 287.737 94.7731C285.843 96.6185 283.178 97.5412 279.742 97.5412Z" fill="url(#paint5_linear_97_235)"/>
<path d="M239.1 90.2915H242.999C244.408 90.2915 245.399 90.0059 245.972 89.4347C246.544 88.8195 246.831 87.809 246.831 86.403V66.3015C246.831 64.8955 246.544 63.9069 245.972 63.3357C245.399 62.7206 244.408 62.413 242.999 62.413H239.1C237.691 62.413 236.7 62.7206 236.127 63.3357C235.555 63.9069 235.268 64.8955 235.268 66.3015V86.403C235.268 87.809 235.555 88.8195 236.127 89.4347C236.7 90.0059 237.691 90.2915 239.1 90.2915ZM244.32 97.5412H237.713C234.233 97.5412 231.546 96.6185 229.652 94.7731C227.758 92.9277 226.811 90.2695 226.811 86.7984V65.9061C226.811 62.435 227.758 59.7768 229.652 57.9314C231.546 56.086 234.233 55.1633 237.713 55.1633H244.32C247.756 55.1633 250.42 56.108 252.314 57.9973C254.208 59.8427 255.155 62.4789 255.155 65.9061V86.7984C255.155 90.2255 254.208 92.8838 252.314 94.7731C250.42 96.6185 247.756 97.5412 244.32 97.5412Z" fill="url(#paint6_linear_97_235)"/>
<path d="M202.763 66.9606V61.5562C202.763 60.8093 203.093 60.2381 203.754 59.8427L209.766 56.086C210.779 55.4709 211.638 55.1633 212.343 55.1633H217.628C218.553 55.1633 219.016 55.6247 219.016 56.5474V96.1571C219.016 96.6844 218.906 97.0579 218.685 97.2775C218.509 97.4533 218.179 97.5412 217.694 97.5412H212.012C211.087 97.5412 210.625 97.0798 210.625 96.1571V64.0607L204.15 67.7514C203.225 68.1469 202.763 67.8833 202.763 66.9606Z" fill="url(#paint7_linear_97_235)"/>
<path d="M185.958 104H181.994C181.069 104 180.606 103.539 180.606 102.616V97.5412H180.144C176.796 97.5412 174.176 96.5965 172.282 94.7072C170.432 92.7739 169.507 90.1157 169.507 86.7325V85.4803C169.507 84.5576 169.969 84.0962 170.894 84.0962H176.51C177.435 84.0962 177.897 84.5576 177.897 85.4803V85.9416C177.897 87.6112 178.228 88.7536 178.889 89.3688C179.549 89.9839 180.76 90.2914 182.522 90.2914H185.165C186.883 90.2914 188.072 89.9619 188.733 89.3029C189.438 88.6438 189.79 87.4135 189.79 85.6121V84.6235C189.79 83.5251 189.46 82.6683 188.799 82.0531C188.138 81.438 187.368 81.0206 186.487 80.8009C185.694 80.6252 184.13 80.4275 181.796 80.2078C179.505 79.9881 177.787 79.7244 176.642 79.4169C175.497 79.0654 174.33 78.4942 173.14 77.7033C170.674 76.1216 169.441 73.024 169.441 68.4105V65.972C169.441 62.5009 170.365 59.8427 172.215 57.9973C174.109 56.108 176.752 55.1633 180.144 55.1633H180.606V49.9567C180.606 49.034 181.069 48.5727 181.994 48.5727H185.958C186.883 48.5727 187.345 49.034 187.345 49.9567V55.1633H187.478C190.605 55.1633 193.072 56.1299 194.877 58.0632C196.683 59.9964 197.586 62.6327 197.586 65.972V67.2242C197.586 68.1469 197.124 68.6082 196.199 68.6082H190.583C189.658 68.6082 189.195 68.1469 189.195 67.2242V66.7628C189.195 65.0932 188.865 63.9508 188.204 63.3357C187.588 62.7206 186.376 62.413 184.571 62.413H182.456C180.65 62.413 179.417 62.7645 178.756 63.4675C178.14 64.1266 177.831 65.4447 177.831 67.4219V68.74C177.831 69.7067 178.162 70.4756 178.822 71.0468C179.483 71.574 180.232 71.9255 181.069 72.1013C182.038 72.277 183.668 72.4747 185.958 72.6944C188.292 72.8702 190.032 73.1558 191.178 73.5512C192.367 73.9027 193.534 74.4739 194.679 75.2648C197.014 76.9344 198.181 79.9222 198.181 84.2281V86.7325C198.181 90.1596 197.212 92.8179 195.274 94.7072C193.38 96.5965 190.781 97.5412 187.478 97.5412H187.345V102.616C187.345 103.539 186.883 104 185.958 104Z" fill="url(#paint8_linear_97_235)"/>
<path d="M152.944 48.5727H151.011C149.928 48.5727 149.086 48.2732 148.485 47.6744C147.9 47.0755 147.607 46.243 147.607 45.1767V40.7949C147.607 39.7141 147.9 38.8815 148.485 38.2973C149.086 37.6984 149.928 37.399 151.011 37.399H152.944C154.013 37.399 154.847 37.6984 155.448 38.2973C156.063 38.8815 156.37 39.7141 156.37 40.7949V45.1767C156.37 46.243 156.063 47.0755 155.448 47.6744C154.847 48.2732 154.013 48.5727 152.944 48.5727ZM151.319 46.7104H152.658C153.713 46.7104 154.24 46.1773 154.24 45.111V40.8606C154.24 39.7944 153.713 39.2613 152.658 39.2613H151.319C150.762 39.2613 150.36 39.3927 150.111 39.6556C149.862 39.9039 149.737 40.3056 149.737 40.8606V45.111C149.737 45.666 149.862 46.075 150.111 46.3379C150.36 46.5862 150.762 46.7104 151.319 46.7104Z" fill="url(#paint9_linear_97_235)"/>
<path d="M140.456 39.2613H139.401C139.255 39.2613 139.153 39.2393 139.094 39.1955C139.05 39.1371 139.028 39.0422 139.028 38.9107V37.7714C139.028 37.5231 139.153 37.399 139.401 37.399H140.456C140.602 37.399 140.675 37.3259 140.675 37.1799V35.2081C140.675 34.9598 140.807 34.8356 141.071 34.8356H142.454C142.703 34.8356 142.828 34.9598 142.828 35.2081V37.1799C142.828 37.3259 142.908 37.399 143.069 37.399H145.112C145.376 37.399 145.507 37.5231 145.507 37.7714V38.9107C145.507 39.1444 145.376 39.2613 145.112 39.2613H143.069C142.908 39.2613 142.828 39.3343 142.828 39.4803V45.111C142.828 46.1772 143.377 46.7104 144.475 46.7104H145.332C145.595 46.7104 145.727 46.8345 145.727 47.0828V48.2221C145.727 48.4558 145.595 48.5726 145.332 48.5726H144.146C143.062 48.5726 142.213 48.2805 141.598 47.6963C140.983 47.112 140.675 46.2868 140.675 45.2205V39.4803C140.675 39.3343 140.602 39.2613 140.456 39.2613Z" fill="url(#paint10_linear_97_235)"/>
<defs>
<linearGradient id="paint0_linear_97_235" x1="-1.21918e-06" y1="27.0906" x2="343.789" y2="104.245" gradientUnits="userSpaceOnUse">
<stop stop-color="#2D2D2D"/>
<stop offset="1" stop-color="#2D2D2D" stop-opacity="0.4"/>
</linearGradient>
<linearGradient id="paint1_linear_97_235" x1="-1.21918e-06" y1="27.0906" x2="343.789" y2="104.245" gradientUnits="userSpaceOnUse">
<stop stop-color="#2D2D2D"/>
<stop offset="1" stop-color="#2D2D2D" stop-opacity="0.4"/>
</linearGradient>
<linearGradient id="paint2_linear_97_235" x1="-1.21918e-06" y1="27.0906" x2="343.789" y2="104.245" gradientUnits="userSpaceOnUse">
<stop stop-color="#2D2D2D"/>
<stop offset="1" stop-color="#2D2D2D" stop-opacity="0.4"/>
</linearGradient>
<linearGradient id="paint3_linear_97_235" x1="-1.21918e-06" y1="27.0906" x2="343.789" y2="104.245" gradientUnits="userSpaceOnUse">
<stop stop-color="#2D2D2D"/>
<stop offset="1" stop-color="#2D2D2D" stop-opacity="0.4"/>
</linearGradient>
<linearGradient id="paint4_linear_97_235" x1="-1.21918e-06" y1="27.0906" x2="343.789" y2="104.245" gradientUnits="userSpaceOnUse">
<stop stop-color="#2D2D2D"/>
<stop offset="1" stop-color="#2D2D2D" stop-opacity="0.4"/>
</linearGradient>
<linearGradient id="paint5_linear_97_235" x1="-1.21918e-06" y1="27.0906" x2="343.789" y2="104.245" gradientUnits="userSpaceOnUse">
<stop stop-color="#2D2D2D"/>
<stop offset="1" stop-color="#2D2D2D" stop-opacity="0.4"/>
</linearGradient>
<linearGradient id="paint6_linear_97_235" x1="-1.21918e-06" y1="27.0906" x2="343.789" y2="104.245" gradientUnits="userSpaceOnUse">
<stop stop-color="#2D2D2D"/>
<stop offset="1" stop-color="#2D2D2D" stop-opacity="0.4"/>
</linearGradient>
<linearGradient id="paint7_linear_97_235" x1="-1.21918e-06" y1="27.0906" x2="343.789" y2="104.245" gradientUnits="userSpaceOnUse">
<stop stop-color="#2D2D2D"/>
<stop offset="1" stop-color="#2D2D2D" stop-opacity="0.4"/>
</linearGradient>
<linearGradient id="paint8_linear_97_235" x1="-1.21918e-06" y1="27.0906" x2="343.789" y2="104.245" gradientUnits="userSpaceOnUse">
<stop stop-color="#2D2D2D"/>
<stop offset="1" stop-color="#2D2D2D" stop-opacity="0.4"/>
</linearGradient>
<linearGradient id="paint9_linear_97_235" x1="-1.21918e-06" y1="27.0906" x2="343.789" y2="104.245" gradientUnits="userSpaceOnUse">
<stop stop-color="#2D2D2D"/>
<stop offset="1" stop-color="#2D2D2D" stop-opacity="0.4"/>
</linearGradient>
<linearGradient id="paint10_linear_97_235" x1="-1.21918e-06" y1="27.0906" x2="343.789" y2="104.245" gradientUnits="userSpaceOnUse">
<stop stop-color="#2D2D2D"/>
<stop offset="1" stop-color="#2D2D2D" stop-opacity="0.4"/>
</linearGradient>
</defs>
</svg>
