<svg width="100" height="100" viewBox="0 0 100 100" fill="none" xmlns="http://www.w3.org/2000/svg">
<path d="M7.22061 42.0749C7.76739 42.9269 7.97701 43.976 7.80193 45.0214C7.62686 46.0668 7.08691 46.9903 6.29237 47.6177C5.49784 48.2451 4.53262 48.4992 3.5858 48.3406C2.62913 48.1804 1.79934 47.6257 1.25256 46.7737C0.705769 45.9217 0.496155 44.8727 0.671231 43.8273C0.846307 42.7818 1.38625 41.8583 2.18079 41.2309L2.92134 42.379C2.4081 42.7797 2.06569 43.3713 1.95338 44.042C1.84106 44.7126 1.97206 45.3835 2.32674 45.9296C2.68142 46.4756 3.20885 46.8377 3.82034 46.9401C4.42196 47.0409 5.04845 46.872 5.55183 46.4697C6.06506 46.0689 6.40747 45.4773 6.51979 44.8067C6.6321 44.136 6.5011 43.4652 6.14643 42.9191L7.22061 42.0749ZM9.23887 28.7232C11.0217 29.6072 11.6957 31.8947 10.7406 33.821C9.78554 35.7472 7.5612 36.5864 5.77833 35.7024C3.98651 34.8139 3.30808 32.5354 4.26317 30.6092C5.21827 28.683 7.44705 27.8348 9.23887 28.7232ZM8.60363 30.0044C7.45686 29.4358 6.03201 29.9682 5.42786 31.1867C4.82371 32.4051 5.26237 33.8616 6.40914 34.4302C7.54695 34.9944 8.97179 34.4619 9.57594 33.2435C10.1845 32.0161 9.74144 30.5686 8.60363 30.0044ZM14.8977 15.187L20.4201 19.5374L19.4204 20.5599L17.5154 19.061C17.5154 19.061 17.5154 19.061 17.5082 19.054C16.4452 18.2244 15.6361 17.3355 15.6361 17.3355C15.6361 17.3355 16.0906 18.1294 16.522 19.3904L17.5463 22.4337L14.5019 21.4851C13.2175 21.0824 12.4063 20.6389 12.4063 20.6389C12.4063 20.6389 13.3063 21.4349 14.1666 22.4718L15.7223 24.3565L14.7226 25.379L10.2417 19.9491L11.1855 18.9838L15.344 20.2805L13.9539 16.1523L14.8977 15.187ZM25.8361 14.5698L24.6219 15.3061L20.9923 9.3206L22.2065 8.5843L25.8361 14.5698ZM33.5596 3.2442L34.9221 2.80996L37.0478 9.47942L35.7234 9.90151L32.88 7.764C31.571 6.78528 30.8945 6.04579 30.8945 6.04579C30.8945 6.04579 31.3059 6.74382 31.7796 8.23016L32.6269 10.8884L31.2739 11.3196L29.1483 4.65016L30.4631 4.23111L33.3129 6.35605C34.6124 7.33781 35.2985 8.07426 35.2985 8.07426C35.2985 8.07426 34.8775 7.37926 34.4069 5.90245L33.5596 3.2442ZM50.2024 3.40602C50.245 3.61549 50.2677 3.82523 50.2706 4.05521C50.2956 6.04505 48.5662 7.68697 46.4164 7.71407C44.2665 7.74116 42.5063 6.14321 42.4812 4.15337C42.456 2.15353 44.1754 0.511734 46.3253 0.484641C47.4152 0.470905 48.4004 0.878522 49.1188 1.53952L48.1203 2.46218C47.6749 2.03776 47.0416 1.77572 46.3416 1.78454C44.9818 1.80168 43.8849 2.85558 43.9011 4.13548C43.9171 5.40538 45.0401 6.43131 46.4 6.41417C47.5299 6.39993 48.461 5.68814 48.7488 4.71444L46.2889 4.74544L47.7026 3.43752L50.2024 3.40602ZM67.9529 10.7966C67.3241 10.9688 66.5673 10.8785 65.857 10.5328C65.812 10.511 65.7581 10.4847 65.7085 10.4495C64.5119 9.80041 63.8641 8.61772 64.0662 7.44825L65.4468 7.74201C65.3206 8.48131 65.8275 9.03939 66.3359 9.32016C66.7318 9.53505 67.1619 9.61093 67.4696 9.52712C67.6524 9.47149 67.7854 9.35825 67.8595 9.18303C68.0737 8.72007 67.7561 8.2986 67.0691 7.63066C66.9787 7.54218 66.9019 7.47145 66.8341 7.40509C66.7979 7.36523 66.7617 7.32536 66.7255 7.2855C66.2509 6.821 65.1523 5.71918 65.8507 4.53544C66.4657 3.50018 67.8337 3.45417 68.8588 3.953C69.9738 4.4956 70.5601 5.37036 70.5177 6.41735L69.1207 6.27136C69.1307 5.95371 69.0542 5.49388 68.2899 5.12194C68.254 5.10444 67.4134 4.70648 67.0927 5.25109C66.917 5.54368 67.1891 5.89855 67.7046 6.41628C67.7587 6.46489 67.8039 6.50913 67.8402 6.54899C67.899 6.61098 67.9578 6.67296 68.0346 6.74369C68.5949 7.2833 69.7789 8.41551 69.1585 9.78179C68.9358 10.2851 68.5192 10.6384 67.9529 10.7966ZM81.3917 16.5927C80.0533 18.0654 77.6687 18.0872 76.0776 16.6411C74.4866 15.1951 74.2885 12.826 75.627 11.3533C76.9721 9.87327 79.3493 9.84472 80.9404 11.2908C82.5314 12.7368 82.7369 15.1127 81.3917 16.5927ZM80.3335 15.6309C81.1944 14.6837 81.0725 13.1675 80.066 12.2528C79.0596 11.3381 77.5387 11.3612 76.6778 12.3084C75.8236 13.2482 75.9456 14.7644 76.952 15.6791C77.9658 16.6005 79.4793 16.5708 80.3335 15.6309ZM90.0232 27.734C88.3013 28.7317 86.0223 28.0297 84.9444 26.1694C83.8665 24.3092 84.3958 21.9914 86.1176 20.9938C87.8481 19.9911 90.1222 20.6844 91.2001 22.5447C92.278 24.405 91.7536 26.7313 90.0232 27.734ZM89.3062 26.4967C90.4137 25.855 90.7571 24.3732 90.0753 23.1964C89.3934 22.0197 87.9371 21.5807 86.8296 22.2224C85.7307 22.8591 85.3873 24.3409 86.0692 25.5177C86.756 26.7031 88.2074 27.1334 89.3062 26.4967ZM97.9923 37.0961L98.4045 38.4654L91.7015 40.4829L91.3009 39.1519L93.4841 36.3435C94.4838 35.0505 95.2342 34.386 95.2342 34.386C95.2342 34.386 94.5296 34.7861 93.0358 35.2357L90.3642 36.0398L89.9549 34.6801L96.6579 32.6626L97.0556 33.984L94.8848 36.7991C93.8822 38.0825 93.1348 38.7566 93.1348 38.7566C93.1348 38.7566 93.8365 38.3469 95.3207 37.9002L97.9923 37.0961Z" fill="white"/>
<path d="M92.5733 57.719C92.0266 56.867 91.8169 55.818 91.992 54.7725C92.1671 53.7271 92.707 52.8036 93.5016 52.1762C94.2961 51.5488 95.2613 51.2948 96.2081 51.4533C97.1648 51.6135 97.9946 52.1682 98.5414 53.0202C99.0882 53.8722 99.2978 54.9213 99.1227 55.9667C98.9476 57.0121 98.4077 57.9356 97.6132 58.563L96.8726 57.4149C97.3858 57.0142 97.7283 56.4226 97.8406 55.752C97.9529 55.0813 97.8219 54.4105 97.4672 53.8644C97.1125 53.3183 96.5851 52.9562 95.9736 52.8538C95.372 52.7531 94.7455 52.9219 94.2421 53.3243C93.7289 53.725 93.3865 54.3166 93.2742 54.9873C93.1618 55.6579 93.2928 56.3288 93.6475 56.8748L92.5733 57.719ZM90.5551 71.0707C88.7722 70.1867 88.0982 67.8992 89.0533 65.973C90.0084 64.0468 92.2327 63.2075 94.0156 64.0915C95.8074 64.98 96.4859 67.2585 95.5308 69.1848C94.5757 71.111 92.3469 71.9592 90.5551 71.0707ZM91.1903 69.7896C92.3371 70.3582 93.7619 69.8257 94.3661 68.6073C94.9702 67.3888 94.5316 65.9324 93.3848 65.3637C92.247 64.7996 90.8222 65.332 90.218 66.5505C89.6094 67.7779 90.0525 69.2254 91.1903 69.7896ZM84.8963 84.607L79.3739 80.2566L80.3736 79.2341L82.2786 80.733C82.2786 80.733 82.2786 80.733 82.2857 80.74C83.3487 81.5695 84.1578 82.4585 84.1578 82.4585C84.1578 82.4585 83.7034 81.6645 83.2719 80.4036L82.2476 77.3602L85.292 78.3088C86.5765 78.7116 87.3876 79.155 87.3876 79.155C87.3876 79.155 86.4877 78.359 85.6274 77.3221L84.0716 75.4374L85.0713 74.4149L89.5522 79.8449L88.6085 80.8101L84.4499 79.5134L85.84 83.6417L84.8963 84.607ZM73.9578 85.2242L75.172 84.4879L78.8016 90.4733L77.5874 91.2096L73.9578 85.2242ZM66.2343 96.5497L64.8718 96.984L62.7462 90.3145L64.0706 89.8924L66.9139 92.0299C68.2229 93.0087 68.8994 93.7482 68.8994 93.7482C68.8994 93.7482 68.488 93.0501 68.0143 91.5638L67.1671 88.9055L68.52 88.4743L70.6457 95.1438L69.3308 95.5628L66.481 93.4379C65.1815 92.4561 64.4955 91.7197 64.4955 91.7197C64.4955 91.7197 64.9164 92.4147 65.3871 93.8915L66.2343 96.5497ZM49.5916 96.3879C49.5489 96.1784 49.5263 95.9687 49.5234 95.7387C49.4983 93.7489 51.2277 92.107 53.3776 92.0799C55.5274 92.0528 57.2877 93.6507 57.3128 95.6406C57.338 97.6404 55.6185 99.2822 53.4687 99.3093C52.3788 99.323 51.3936 98.9154 50.6752 98.2544L51.6736 97.3318C52.119 97.7562 52.7524 98.0182 53.4523 98.0094C54.8122 97.9923 55.909 96.9384 55.8929 95.6585C55.8769 94.3886 54.7539 93.3626 53.394 93.3798C52.264 93.394 51.3329 94.1058 51.0452 95.0795L53.505 95.0485L52.0914 96.3564L49.5916 96.3879ZM31.8411 88.9974C32.4698 88.8251 33.2266 88.9154 33.937 89.2611C33.9819 89.283 34.0359 89.3092 34.0855 89.3445C35.2821 89.9935 35.9299 91.1762 35.7278 92.3457L34.3471 92.0519C34.4733 91.3126 33.9664 90.7546 33.458 90.4738C33.0622 90.2589 32.632 90.183 32.3243 90.2668C32.1415 90.3225 32.0086 90.4357 31.9344 90.6109C31.7203 91.0739 32.0379 91.4953 32.7248 92.1633C32.8152 92.2518 32.892 92.3225 32.9598 92.3889C32.996 92.4287 33.0322 92.4686 33.0684 92.5084C33.543 92.9729 34.6417 94.0748 33.9433 95.2585C33.3283 96.2938 31.9602 96.3398 30.9352 95.8409C29.8202 95.2983 29.2338 94.4236 29.2762 93.3766L30.6732 93.5226C30.6632 93.8402 30.7397 94.3001 31.504 94.672C31.54 94.6895 32.3806 95.0875 32.7012 94.5429C32.877 94.2503 32.6048 93.8954 32.0894 93.3777C32.0352 93.329 31.99 93.2848 31.9538 93.2449C31.895 93.183 31.8362 93.121 31.7594 93.0502C31.199 92.5106 30.0151 91.3784 30.6355 90.0122C30.8582 89.5089 31.2748 89.1555 31.8411 88.9974ZM18.4022 83.2012C19.7406 81.7286 22.1253 81.7067 23.7163 83.1528C25.3074 84.5988 25.5054 86.968 24.167 88.4406C22.8218 89.9207 20.4446 89.9492 18.8536 88.5032C17.2625 87.0571 17.057 84.6813 18.4022 83.2012ZM19.4604 84.163C18.5995 85.1102 18.7215 86.6264 19.7279 87.5411C20.7343 88.4558 22.2553 88.4328 23.1162 87.4856C23.9703 86.5457 23.8484 85.0295 22.842 84.1148C21.8281 83.1934 20.3146 83.2232 19.4604 84.163ZM9.7708 72.0599C11.4926 71.0622 13.7717 71.7642 14.8496 73.6245C15.9275 75.4848 15.3981 77.8025 13.6763 78.8002C11.9458 79.8029 9.67176 79.1095 8.59386 77.2492C7.51597 75.389 8.04031 73.0626 9.7708 72.0599ZM10.4877 73.2972C9.38021 73.9389 9.03685 75.4208 9.71868 76.5975C10.4005 77.7742 11.8569 78.2133 12.9644 77.5715C14.0632 76.9348 14.4066 75.453 13.7248 74.2763C13.0379 73.0909 11.5866 72.6605 10.4877 73.2972ZM1.80164 62.6979L1.38949 61.3285L8.09245 59.311L8.49307 60.642L6.30986 63.4505C5.3101 64.7435 4.55977 65.4079 4.55977 65.4079C4.55977 65.4079 5.26437 65.0079 6.75817 64.5583L9.42977 63.7541L9.83904 65.1139L3.13609 67.1314L2.73835 65.8099L4.9091 62.9948C5.91174 61.7114 6.65919 61.0374 6.65919 61.0374C6.65919 61.0374 5.95748 61.447 4.47325 61.8937L1.80164 62.6979Z" fill="white"/>
</svg>
