<svg width="241" height="34" viewBox="0 0 241 34" fill="none" xmlns="http://www.w3.org/2000/svg">
<path d="M233.547 14.8655C235.69 15.4837 240.157 16.793 240.266 20.9389C240.339 22.3936 239.721 23.7392 238.559 24.7576C237.143 26.0304 235 26.7578 232.64 26.7578C232.494 26.7578 232.313 26.7578 232.167 26.7578C228.282 26.5759 225.122 24.5393 224.142 21.4844L228.754 20.2479C228.972 21.1935 230.061 22.3936 231.986 22.6482C233.911 22.8664 235.509 22.2845 235.581 21.4117C235.69 20.5389 235.218 20.0661 232.93 19.3024C232.857 19.3024 232.785 19.266 232.712 19.266C232.712 19.2296 232.676 19.2296 232.64 19.2296C232.458 19.1569 232.276 19.1205 232.058 19.0478C231.732 18.9387 231.441 18.8659 231.187 18.7932C231.078 18.7568 230.933 18.6841 230.787 18.6477C229.117 18.1386 224.686 16.7566 225.013 12.8652C225.34 9.41025 228.935 7.81006 232.131 7.81006C235.654 7.81006 238.305 9.22841 239.54 11.7742L235.109 13.5562C234.782 12.5743 233.874 11.7378 231.95 11.7378C230.206 11.7378 227.955 12.9016 231.042 14.029C231.405 14.1745 231.804 14.3199 232.349 14.5018C232.531 14.5381 232.712 14.6109 232.857 14.6472C233.039 14.72 233.293 14.7927 233.547 14.8655Z" fill="#FF6C02"/>
<path d="M219.353 10.6099C221.205 12.4283 222.222 14.865 222.222 17.2653C222.222 19.7019 221.205 22.1386 219.353 23.957C218.445 24.8298 217.283 25.5572 216.048 26.03C214.777 26.5391 213.397 26.7573 212.054 26.721C210.71 26.6846 209.366 26.3209 208.204 25.7754C207.224 25.3026 206.388 24.648 205.662 23.9206V26.3936H200.759V0.936035H205.662V10.6463C206.388 9.91893 207.224 9.26431 208.204 8.79152C209.366 8.246 210.71 7.91869 212.054 7.84595C213.397 7.80959 214.777 8.0278 216.048 8.53695C217.283 9.00973 218.445 9.73709 219.353 10.6099ZM216.884 19.1564C217.138 18.5745 217.283 17.9199 217.283 17.2653C217.283 16.6106 217.138 15.9924 216.884 15.4105C216.593 14.8286 216.194 14.2831 215.685 13.8467C214.705 12.9375 213.434 12.4283 212.054 12.3192C211.364 12.2829 210.637 12.3556 209.947 12.5011C209.221 12.6465 208.531 12.9375 207.877 13.3739C207.224 13.8103 206.642 14.3922 206.279 15.0468C205.88 15.7378 205.662 16.5015 205.662 17.2653C205.662 18.0654 205.88 18.8291 206.279 19.5201C206.679 20.1747 207.224 20.7566 207.877 21.193C208.531 21.5931 209.221 21.884 209.947 22.0658C210.637 22.2113 211.364 22.2477 212.054 22.2113C213.434 22.1386 214.705 21.5931 215.685 20.7202C216.194 20.2838 216.593 19.7383 216.884 19.1564Z" fill="#FF6C02"/>
<path d="M191.94 8.20985H196.879V26.3939H191.94V23.8845C191.214 24.6118 190.415 25.2664 189.434 25.7756C188.236 26.3211 186.929 26.6848 185.549 26.7212C184.205 26.7575 182.825 26.5393 181.59 26.0302C180.319 25.5574 179.193 24.83 178.249 23.9572C176.397 22.1388 175.38 19.7021 175.416 17.2655C175.38 14.8652 176.397 12.4285 178.249 10.6101C179.193 9.73731 180.319 9.00995 181.59 8.53716C182.825 8.02801 184.205 7.8098 185.549 7.84617C186.929 7.91891 188.236 8.24622 189.398 8.79174C190.415 9.30089 191.214 9.95551 191.94 10.6829V8.20985ZM191.323 19.5203C191.722 18.8293 191.94 18.0656 191.94 17.2655C191.94 16.5018 191.722 15.738 191.323 15.047C190.96 14.3924 190.379 13.8105 189.725 13.3741C189.108 12.9377 188.381 12.6467 187.655 12.5013C186.965 12.3558 186.239 12.2831 185.549 12.3194C184.169 12.4285 182.898 12.9377 181.917 13.8469C181.409 14.2833 181.009 14.8288 180.719 15.4107C180.464 15.9926 180.319 16.6472 180.319 17.2655C180.319 17.9201 180.464 18.5747 180.719 19.1566C181.009 19.7385 181.409 20.284 181.917 20.7204C182.898 21.6296 184.169 22.1388 185.549 22.2115C186.239 22.2479 186.965 22.2115 187.655 22.0661C188.381 21.8842 189.071 21.5933 189.725 21.1932C190.379 20.7568 190.96 20.1749 191.323 19.5203Z" fill="#FF6C02"/>
<path d="M174.152 21.8846V26.576H156.575V1.15479H161.732V21.8846H174.152Z" fill="#FF6C02"/>
<path d="M134.516 7.84619C140.108 7.84619 144.684 12.1012 144.684 17.2655C144.684 22.4661 140.108 26.7212 134.516 26.7212C128.887 26.7212 124.347 22.4661 124.347 17.2655C124.347 12.1012 128.887 7.84619 134.516 7.84619ZM134.516 22.2116C137.385 22.2116 139.745 19.9931 139.745 17.2655C139.745 14.5743 137.385 12.3558 134.516 12.3558C131.61 12.3558 129.25 14.5743 129.25 17.2655C129.25 19.9931 131.61 22.2116 134.516 22.2116Z" fill="#FF6C02"/>
<path d="M122.955 8.50082C123.1 8.57356 123.209 8.60993 123.355 8.68266L122.12 13.8833C122.047 13.7742 121.938 13.6651 121.866 13.556C121.503 13.1923 121.176 12.9377 120.74 12.7195C120.34 12.5377 119.868 12.3922 119.287 12.3195C118.96 12.3195 118.67 12.2831 118.379 12.3195C118.379 12.3195 118.379 12.3195 118.343 12.3195C118.307 12.3195 118.27 12.3195 118.234 12.3195C118.162 12.3558 118.089 12.3558 118.016 12.3558C115.438 12.6468 113.985 14.5379 113.985 16.72V26.3575H109.083V8.20988H113.985V10.5011C113.985 10.5011 115.329 8.35535 118.525 7.91894C118.779 7.88257 119.033 7.88257 119.287 7.88257C120.486 7.80983 121.793 7.99167 122.955 8.50082Z" fill="#FF6C02"/>
<path d="M101.55 8.20996H106.888L100.642 21.848L95.1947 33.6676H89.8562L93.4515 25.8484L85.353 8.20996H90.6915L95.9573 20.8297L101.005 9.4101L101.55 8.20996Z" fill="#FF6C02"/>
<path d="M85.6271 23.1573C82.9034 25.6303 79.2718 27.0123 75.4223 27.0123C71.5728 27.0123 67.9412 25.6303 65.2175 23.1573C62.4938 20.6843 61.0049 17.3748 61.0049 13.8835C61.0049 10.3558 62.4938 7.04629 65.2175 4.57327C67.9412 2.10025 71.5728 0.718262 75.4223 0.718262C79.2718 0.718262 82.9034 2.10025 85.6271 4.57327L81.9592 7.91913C80.216 6.31893 77.8918 5.4461 75.4223 5.4461C72.9528 5.4461 70.6286 6.31893 68.8854 7.91913C67.1423 9.51932 66.1617 11.6287 66.1617 13.8835C66.1617 16.1019 67.1423 18.2476 68.8854 19.8115C70.6286 21.4117 72.9528 22.2845 75.4223 22.2845C77.8918 22.2845 80.216 21.4117 81.9592 19.8115L85.6271 23.1573Z" fill="#FF6C02"/>
<rect x="25.2837" width="12.0942" height="27.9498" fill="#FF6C02"/>
<rect x="25.2837" y="27.9746" width="6.99356" height="19.4465" transform="rotate(-90 25.2837 27.9746)" fill="#FF6C02"/>
<rect y="0.00146484" width="12.0942" height="27.9498" fill="#FF6C02"/>
<rect y="27.9756" width="3.98095" height="16.9754" transform="rotate(-90 0 27.9756)" fill="#FF6C02"/>
<rect y="6.67188" width="6.67078" height="19.6614" transform="rotate(-90 0 6.67188)" fill="#FF6C02"/>
<rect y="27.9756" width="6.67078" height="19.6614" transform="rotate(-90 0 27.9756)" fill="#FF6C02"/>
</svg>
