<svg width="48" height="48" viewBox="0 0 48 48" fill="none" xmlns="http://www.w3.org/2000/svg">
<circle cx="24" cy="24" r="24" fill="white"/>
<path d="M24 16.5C24.1598 16.5 24.3063 16.5895 24.3774 16.7311L26.6209 21.1988L31.6391 21.9158L31.6975 21.928C31.83 21.9663 31.9363 22.0674 31.9796 22.1998C32.0289 22.351 31.9872 22.5165 31.8718 22.627L28.2418 26.1036L29.0996 31.0124C29.1268 31.1685 29.062 31.3267 28.9326 31.4201C28.8033 31.5134 28.6313 31.526 28.4894 31.4526L24 29.1325L19.5106 31.4526C19.3688 31.5257 19.1974 31.5132 19.0681 31.4201C18.9388 31.3267 18.874 31.1685 18.9012 31.0124L19.7573 26.1044L16.1281 22.627C16.0129 22.5166 15.9711 22.3509 16.0204 22.1998C16.0698 22.0486 16.2019 21.9385 16.3608 21.9158L21.379 21.1988L23.6233 16.7311L23.6529 16.6807C23.7307 16.5686 23.8601 16.5001 24 16.5ZM22.0353 21.7652C21.9891 21.8573 21.9107 21.9284 21.8165 21.9662L21.7178 21.9923L17.3296 22.6181L20.5032 25.6584C20.6033 25.7543 20.6494 25.8929 20.6257 26.0287L19.8757 30.3239L23.8051 28.2935L23.9005 28.2585C23.9985 28.2348 24.1033 28.2463 24.1949 28.2935L28.1242 30.3239L27.375 26.0287C27.3513 25.893 27.3968 25.7543 27.4968 25.6584L30.6695 22.6181L26.2821 21.9923C26.1794 21.9776 26.0871 21.9264 26.0214 21.8499L25.9655 21.7652L24 17.8525L22.0353 21.7652Z" fill="#111112" stroke="black" stroke-width="2" stroke-linecap="round" stroke-linejoin="round"/>
</svg>
