<svg width="276" height="23" viewBox="0 0 276 23" fill="none" xmlns="http://www.w3.org/2000/svg">
<path d="M236.806 3.70725C237.056 3.70725 237.306 3.70725 237.577 3.70725L244.976 14.4918C244.976 10.8829 243.538 7.29509 243.538 3.70725C243.809 3.70725 245.498 3.70725 245.748 3.70725C245.748 8.59594 245.748 13.4846 245.748 18.3733C245.498 18.3733 245.247 18.3733 244.976 18.3733L237.577 7.58883C237.577 11.1977 239.015 14.7855 239.015 18.3733C238.744 18.3733 237.056 18.3733 236.806 18.3733C236.806 13.4846 236.806 8.59594 236.806 3.70725Z" fill="#FADC96"/>
<path fill-rule="evenodd" clip-rule="evenodd" d="M272.442 18.6512H275.288L270.521 3.45239H269.339L269.28 3.63124C267.655 8.51851 266.029 13.406 264.404 18.3144L264.292 18.6512H267.04L267.096 18.4737C267.401 17.5221 267.349 16.5802 267.3 15.6936L267.298 15.6563C267.252 14.8073 267.213 14.0084 267.437 13.217H270.733L272.442 18.6512ZM267.853 11.9289L269.12 8.10348L270.322 11.9289H267.853Z" fill="#FADC96"/>
<path fill-rule="evenodd" clip-rule="evenodd" d="M258.701 3.45239V4.74045H258.976C259.46 4.74045 259.868 5.15043 259.868 5.63857V18.6302H262.585V3.45239H258.701Z" fill="#FADC96"/>
<path fill-rule="evenodd" clip-rule="evenodd" d="M250.904 3.45239H248.43V18.6326L250.904 18.6092L250.912 18.6086C254.818 18.3262 257.88 15.0464 257.88 11.0308C257.88 7.03547 254.817 3.75712 250.914 3.45315L250.904 3.45239ZM251.148 17.3367V4.86124C253.954 6.07573 255.473 9.11013 255.525 11.9115C255.551 13.3635 255.182 14.7248 254.418 15.7169C253.701 16.6484 252.624 17.2726 251.148 17.3367Z" fill="#FADC96"/>
<path fill-rule="evenodd" clip-rule="evenodd" d="M230.241 3.45239V4.74045H230.516C231.001 4.74045 231.408 5.15043 231.408 5.63857V18.6302H234.126V3.45239H230.241Z" fill="#FADC96"/>
<path d="M223.315 0.132817C223.357 0.0860146 223.398 0.0416824 223.439 -6.10352e-05C223.397 0.0442793 223.356 0.088573 223.315 0.132817C222.301 1.27839 221.156 3.90406 223.909 6.2745C224.874 7.07802 226.34 9.28771 224.488 11.6983L223.366 13.2935L221.34 15.9522C222.281 14.2506 223.732 12.7194 221.34 10.7057C218.378 8.21227 219.712 5.17557 220.037 4.82107C219.82 5.68367 219.82 7.44433 221.231 8.79141C220.48 7.52959 219.75 4.02202 223.315 0.132817Z" fill="#FADC96"/>
<path fill-rule="evenodd" clip-rule="evenodd" d="M184.085 18.7841L180.324 10.3189L184.138 3.37552H181.13L181.03 3.55564C180.481 4.55056 180.284 5.54307 180.098 6.48236L180.095 6.49642C179.953 7.21429 179.815 7.90188 179.546 8.58319L177.216 3.37552H174.052L177.813 11.8201L174 18.7841H177.009L177.108 18.6025C177.656 17.599 177.853 16.6033 178.039 15.6624L178.042 15.6446C178.184 14.9253 178.321 14.2377 178.591 13.5568L180.921 18.7841H184.085Z" fill="#FADC96"/>
<path d="M198.231 9.61598C197.438 9.61598 196.776 10.2517 196.776 11.0798C196.776 11.8825 197.433 12.5436 198.231 12.5436C199.054 12.5436 199.686 11.8782 199.686 11.0798C199.686 10.256 199.05 9.61598 198.231 9.61598Z" fill="#FADC96"/>
<path fill-rule="evenodd" clip-rule="evenodd" d="M198.252 3.37552C194.008 3.37552 190.595 6.81012 190.595 11.0798C190.595 15.3278 194.008 18.7841 198.252 18.7841C202.475 18.7841 205.909 15.3284 205.909 11.0798C205.909 6.80947 202.474 3.37552 198.252 3.37552ZM201.377 16.5127L201.377 16.5132C199.169 17.8043 195.913 16.5522 194.126 13.4469C192.361 10.3638 192.918 6.89737 195.106 5.62585L195.107 5.62537C197.314 4.33428 200.57 5.58635 202.357 8.69153C204.122 11.7747 203.565 15.2412 201.377 16.5127Z" fill="#FADC96"/>
<path d="M207.912 3.72571H208.685L216.099 14.5257C216.099 12.7161 215.737 10.9117 215.377 9.10996C215.017 7.31348 214.658 5.51957 214.658 3.72571H216.871V18.4129H216.099L208.685 7.61287C208.685 9.4225 209.046 11.2269 209.407 13.0286C209.767 14.8251 210.126 16.619 210.126 18.4129H207.912V3.72571Z" fill="#FADC96"/>
<path d="M184.853 4.85334V3.37552H188.933V18.763H186.023V5.65878C186.023 5.22184 185.657 4.85334 185.222 4.85334H184.853Z" fill="#FADC96"/>
<path d="M142.241 11.0534C143.546 11.4299 146.267 12.2273 146.333 14.7524C146.377 15.6384 146.001 16.4579 145.293 17.0781C144.431 17.8534 143.126 18.2964 141.688 18.2964C141.6 18.2964 141.489 18.2964 141.401 18.2964C139.034 18.1856 137.11 16.9452 136.512 15.0847L139.321 14.3316C139.454 14.9075 140.118 15.6384 141.29 15.7934C142.462 15.9263 143.435 15.5719 143.48 15.0404C143.546 14.5088 143.258 14.2208 141.865 13.7557C141.821 13.7557 141.777 13.7335 141.732 13.7335C141.732 13.7114 141.71 13.7114 141.688 13.7114C141.577 13.6671 141.467 13.6449 141.334 13.6006C141.135 13.5342 140.958 13.4899 140.803 13.4456C140.737 13.4234 140.649 13.3791 140.56 13.357C139.543 13.0469 136.844 12.2052 137.043 9.83516C137.242 7.73094 139.432 6.75635 141.378 6.75635C143.524 6.75635 145.138 7.62019 145.89 9.17067L143.192 10.256C142.993 9.65796 142.44 9.14852 141.268 9.14852C140.206 9.14852 138.835 9.85731 140.715 10.544C140.936 10.6326 141.179 10.7212 141.511 10.8319C141.622 10.854 141.732 10.8983 141.821 10.9205C141.931 10.9648 142.086 11.0091 142.241 11.0534Z" fill="#FF6C02"/>
<path d="M133.596 8.46168C134.724 9.56917 135.343 11.0532 135.343 12.5151C135.343 13.9991 134.724 15.4832 133.596 16.5906C133.043 17.1222 132.335 17.5652 131.583 17.8532C130.809 18.1633 129.969 18.2962 129.15 18.274C128.332 18.2519 127.513 18.0304 126.806 17.6981C126.208 17.4102 125.7 17.0115 125.257 16.5685V18.0747H122.271V2.56985H125.257V8.48383C125.7 8.04084 126.208 7.64214 126.806 7.3542C127.513 7.02195 128.332 6.8226 129.15 6.7783C129.969 6.75615 130.809 6.88905 131.583 7.19915C132.335 7.4871 133.043 7.93009 133.596 8.46168ZM132.092 13.6669C132.247 13.3125 132.335 12.9138 132.335 12.5151C132.335 12.1164 132.247 11.7398 132.092 11.3854C131.915 11.0311 131.672 10.6988 131.362 10.433C130.765 9.87927 129.991 9.56917 129.15 9.50272C128.73 9.48057 128.288 9.52487 127.867 9.61347C127.425 9.70207 127.005 9.87927 126.607 10.1451C126.208 10.4109 125.855 10.7653 125.633 11.164C125.39 11.5848 125.257 12.0499 125.257 12.5151C125.257 13.0024 125.39 13.4675 125.633 13.8884C125.877 14.2871 126.208 14.6415 126.607 14.9073C127.005 15.1509 127.425 15.3281 127.867 15.4389C128.288 15.5274 128.73 15.5496 129.15 15.5275C129.991 15.4832 130.765 15.1509 131.362 14.6193C131.672 14.3535 131.915 14.0213 132.092 13.6669Z" fill="#FF6C02"/>
<path d="M116.9 6.99989H119.908V18.0748H116.9V16.5464C116.458 16.9894 115.971 17.3881 115.374 17.6982C114.644 18.0305 113.848 18.252 113.007 18.2741C112.189 18.2963 111.349 18.1634 110.597 17.8533C109.822 17.5653 109.137 17.1223 108.562 16.5907C107.434 15.4832 106.814 13.9992 106.837 12.5152C106.814 11.0533 107.434 9.56926 108.562 8.46178C109.137 7.93018 109.822 7.48719 110.597 7.19924C111.349 6.88915 112.189 6.75625 113.007 6.7784C113.848 6.8227 114.644 7.02204 115.352 7.35429C115.971 7.66439 116.458 8.06308 116.9 8.50608V6.99989ZM116.524 13.8885C116.768 13.4676 116.9 13.0025 116.9 12.5152C116.9 12.05 116.768 11.5849 116.524 11.164C116.303 10.7654 115.949 10.411 115.551 10.1452C115.175 9.87936 114.733 9.70216 114.29 9.61356C113.87 9.52496 113.428 9.48067 113.007 9.50281C112.167 9.56926 111.393 9.87936 110.796 10.4331C110.486 10.6989 110.243 11.0311 110.066 11.3855C109.911 11.7399 109.822 12.1386 109.822 12.5152C109.822 12.9139 109.911 13.3126 110.066 13.667C110.243 14.0214 110.486 14.3536 110.796 14.6194C111.393 15.1731 112.167 15.4832 113.007 15.5275C113.428 15.5497 113.87 15.5275 114.29 15.4389C114.733 15.3282 115.153 15.151 115.551 14.9074C115.949 14.6416 116.303 14.2872 116.524 13.8885Z" fill="#FF6C02"/>
<path d="M106.066 15.3283V18.1856H95.3611V2.70294H98.5018V15.3283H106.066Z" fill="#FF6C02"/>
<path d="M81.9261 6.7785C85.3323 6.7785 88.1191 9.37002 88.1191 12.5153C88.1191 15.6827 85.3323 18.2742 81.9261 18.2742C78.4978 18.2742 75.733 15.6827 75.733 12.5153C75.733 9.37002 78.4978 6.7785 81.9261 6.7785ZM81.9261 15.5276C83.6734 15.5276 85.1111 14.1765 85.1111 12.5153C85.1111 10.8762 83.6734 9.52507 81.9261 9.52507C80.1566 9.52507 78.719 10.8762 78.719 12.5153C78.719 14.1765 80.1566 15.5276 81.9261 15.5276Z" fill="#FF6C02"/>
<path d="M74.8852 7.17723C74.9737 7.22153 75.0401 7.24368 75.1285 7.28798L74.3765 10.4554C74.3323 10.3889 74.2659 10.3225 74.2217 10.256C74.0005 10.0345 73.8015 9.8795 73.536 9.7466C73.2927 9.63585 73.0052 9.54726 72.6513 9.50296C72.4523 9.50296 72.2753 9.48081 72.0984 9.50296C72.0984 9.50296 72.0984 9.50296 72.0763 9.50296C72.0541 9.50296 72.032 9.50296 72.0099 9.50296C71.9657 9.52511 71.9214 9.52511 71.8772 9.52511C70.3068 9.7023 69.4221 10.8541 69.4221 12.1831V18.0528H66.4362V7.00004H69.4221V8.39547C69.4221 8.39547 70.2405 7.08863 72.1868 6.82284C72.3417 6.80069 72.4965 6.80069 72.6513 6.80069C73.3812 6.75639 74.1775 6.86714 74.8852 7.17723Z" fill="#FF6C02"/>
<path d="M61.8488 7H65.1001L61.2958 15.3062L57.9781 22.5048H54.7268L56.9165 17.7426L51.9841 7H55.2355L58.4426 14.686L61.517 7.73094L61.8488 7Z" fill="#FF6C02"/>
<path d="M52.1509 16.1035C50.4921 17.6096 48.2803 18.4513 45.9358 18.4513C43.5913 18.4513 41.3795 17.6096 39.7206 16.1035C38.0617 14.5973 37.1549 12.5817 37.1549 10.4553C37.1549 8.30675 38.0617 6.29113 39.7206 4.78494C41.3795 3.27876 43.5913 2.43707 45.9358 2.43707C48.2803 2.43707 50.4921 3.27876 52.1509 4.78494L49.917 6.82272C48.8553 5.84813 47.4398 5.31654 45.9358 5.31654C44.4317 5.31654 43.0162 5.84813 41.9545 6.82272C40.8929 7.79731 40.2957 9.08199 40.2957 10.4553C40.2957 11.8064 40.8929 13.1132 41.9545 14.0657C43.0162 15.0403 44.4317 15.5719 45.9358 15.5719C47.4398 15.5719 48.8553 15.0403 49.917 14.0657L52.1509 16.1035Z" fill="#FF6C02"/>
<rect x="15.3989" y="1.99982" width="7.36593" height="17.0227" fill="#FF6C02"/>
<rect x="15.3988" y="19.0374" width="4.25939" height="11.8438" transform="rotate(-90 15.3988 19.0374)" fill="#FF6C02"/>
<rect y="2.00037" width="7.36593" height="17.0227" fill="#FF6C02"/>
<rect y="19.0378" width="2.42458" height="10.3388" transform="rotate(-90 0 19.0378)" fill="#FF6C02"/>
<rect y="6.06277" width="4.0628" height="11.9747" transform="rotate(-90 0 6.06277)" fill="#FF6C02"/>
<rect y="19.0378" width="4.0628" height="11.9747" transform="rotate(-90 0 19.0378)" fill="#FF6C02"/>
<path d="M160.787 11.1255L163.324 14.3826H161.88L160.072 12.0505L158.25 14.3826H156.819L159.343 11.1255L156.819 7.86841H158.25L160.072 10.2005L161.88 7.86841H163.324L160.787 11.1255Z" fill="white"/>
</svg>
